<svg id="artwork" xmlns="http://www.w3.org/2000/svg" viewBox="0 0 21.01 17.34"><path d="M21,12.18l0,1.1-.1.18v.6l-.06.43.13.1,0,.22-.14-.05,0,.39-.07.22-.18.25v.17l-.11.16c.07.15.24.33.23.5a.38.38,0,0,1-.14.26,2.39,2.39,0,0,1-.23.22.93.93,0,0,1-.2.1,2.22,2.22,0,0,0-.39.12c-.1.06-.18.19-.31.19l-.22-.06-.41-.13-.25.08-.3-.05L18,17v-.17l0-.27.13,0,.42.16,0,.12.14.06.09-.17-.06-.17-.26-.06-.14,0L18,16.39l-.11-.27L17.72,16l-.1-.24-.34-.26v-.14l.19-.1-.28-.08-.16.07-.09-.18H16.8l-.2-.1-.09.24-.27-.25a.49.49,0,0,1,0-.12l.14,0-.29-.25,0-.15.11-.11L16,14.21v-.36l-.18-.28-.23-.09-.18-.22,0,.24a1.09,1.09,0,0,1-.08.15l-.19-.12-.18,0-.15-.16-.06-.29-.13-.2.1-.25.06.06.16.19a2,2,0,0,1,.07-.23l.17.06.08-.17-.09-.13,0-.14,0-.11,0-.13-.14,0L15,12l.06.16,0,.34h-.17l-.12-.09h-.13l-.07-.16-.28-.18-.24-.41-.21-.21a.57.57,0,0,1,0-.13H14l-.08-.17-.19-.1,0-.16-.06-.19-.18-.2-.15,0-.08-.24,0-.18.24-.16.13-.41v-.3l-.14-.22-.23-.21,0,.17.26.22v.4a2.18,2.18,0,0,1-.09.23l-.25-.15-.36-.33-.05-.14.07-.13,0-.13L13,8.82l0-.59.25-.35V7.67l.09-.14,0-.15.1-.19L13.29,7l0-.34-.05-.19-.18-.16V6.18l.15,0L13,6V5.81l-.2-.21.07-.13-.11-.11-.38,0-.24-.07-.14-.25L11.89,5V4.86l-.16-.22-.23-.08-.13-.19-.16-.08,0-.16V4L11,3.82l-.17-.06-.13-.13V3.49L10,2.91l-.32-.08-.14-.16H9.35l-.22.13L9,2.69l-.17,0,0,.14L8.64,2.8V3l-.17.06.22.09a.71.71,0,0,1,0,.15l-.16.06-.45,0-.14,0-.21.2.09.16-.06,0,0,0L7.55,4l-.26.16-.07.14-.38.15L6.7,4.29l0-.14L7,4.07,6.77,4,6.5,4l-.08.11-.21.13H6.09L6,4s-.12-.26-.12-.27l.06,0v0l0,0,.09,0,0,.13,0-.25L6,3.45l0-.14-.41-.16L5.27,2.9l-.11,0-.3-.23-.47-.36-.25.05-.37-.16-.56,0L3,2.08l-.16.08-.29,0H2.28l-.23.08-.23,0-.18.06H1.41l-.19,0-.14.13-.46,0-.11.07-.19,0V2.34L.51,2,.44,1.75l.08-.19-.09-.4L.12.89,0,.73.06.29,6.66,0l.18.42,0,.23.37.24L13.9,1l.2.12V1.5l.24.13.15,0,.05-.36,0-.34L14.43.76l.06-.23,0-.16.35-.22.28.09.13.14.59.11.31-.06.06.57.19.59V1.8l.11.2,0,.15.11.4.18.46.13.19.05.31.11.18.17.44.2.3.74,1.14.09.18.13.13v.21l.32.35.24.33,0,.22-.19,0-.06.1,0,.26.13.18-.05.17.19.44.3.45.06.29,0,.15.31.29.18.43v.13l.12.06.13.21.32.59-.05.16.17.07.2.46-.1.14.17.08.14.38-.05.16Z"/></svg>