<svg id="artwork" xmlns="http://www.w3.org/2000/svg" viewBox="0 0 77.51 9.07"><path d="M8,5.79H8a1.19,1.19,0,0,1-.08.2h0a.61.61,0,0,1-.07.14v0A3.67,3.67,0,0,1,1,5.67H1c-.2-.76.81-.67,1.6-.44S4,5.64,4,6v.64a.51.51,0,0,0,.51.51h0A.5.5,0,0,0,5,6.66H5v0c0-.49-.44-.83-1-1.12-1.28-.65-3.28-1-2.95-2.22a2.44,2.44,0,0,1,.1-.24l.06-.14A3.68,3.68,0,0,1,8,3.39H8c.21.77-.8.67-1.59.44S5,3.43,5,3.11V2.46A.51.51,0,0,0,4.51,2h0A.51.51,0,0,0,4,2.41H4v0H4c0,.48.45.82,1,1.11C6.31,4.21,8.31,4.62,8,5.79Z"/><path d="M4.54,9.07A4.54,4.54,0,1,1,9.07,4.54,4.53,4.53,0,0,1,4.54,9.07Zm0-8.84A4.31,4.31,0,1,0,8.85,4.54,4.31,4.31,0,0,0,4.54.23Z"/><path d="M9.38,7,10,6a3.33,3.33,0,0,0,.59.26,2.11,2.11,0,0,0,.67.12A1.37,1.37,0,0,0,12,6.23a.67.67,0,0,0,.33-.38.28.28,0,0,0-.09-.29,3.36,3.36,0,0,0-.46-.36l-.21-.14c-.31-.23-.55-.41-.73-.56a1.74,1.74,0,0,1-.41-.57,1.09,1.09,0,0,1,0-.76,1.88,1.88,0,0,1,.47-.8,2.5,2.5,0,0,1,.86-.55,3.15,3.15,0,0,1,1.13-.2,2.91,2.91,0,0,1,.82.12,2.2,2.2,0,0,1,.69.32L13.67,3a3.7,3.7,0,0,0-.6-.23,1.81,1.81,0,0,0-.54-.07,1.08,1.08,0,0,0-.54.13.58.58,0,0,0-.29.35.32.32,0,0,0,.08.32,2,2,0,0,0,.43.33l.23.15c.33.23.59.42.76.56a1.54,1.54,0,0,1,.4.56,1.09,1.09,0,0,1,0,.76,1.84,1.84,0,0,1-.5.83,2.52,2.52,0,0,1-.91.57A3.36,3.36,0,0,1,11,7.47a3.4,3.4,0,0,1-.88-.14A2.24,2.24,0,0,1,9.38,7Z"/><path d="M13.73,7.36,15.3,1.73h1.3L15,7.36Z"/><path d="M18.71,5.17l.39-1h2.13l-.82,2.85a3.75,3.75,0,0,1-.93.31,5.49,5.49,0,0,1-1,.11A2.51,2.51,0,0,1,17,7.1a1.65,1.65,0,0,1-.72-1,2.86,2.86,0,0,1,.07-1.52A3.91,3.91,0,0,1,17.19,3a4.26,4.26,0,0,1,1.38-1,3.9,3.9,0,0,1,1.63-.36,3.84,3.84,0,0,1,.85.1,2.16,2.16,0,0,1,.73.31l-.65.89a6.2,6.2,0,0,0-.65-.18,2.34,2.34,0,0,0-.56-.06A2,2,0,0,0,19,2.9a2.58,2.58,0,0,0-.81.64,2.91,2.91,0,0,0-.53,1,2,2,0,0,0-.06,1,1,1,0,0,0,.39.62,1.23,1.23,0,0,0,.73.21,3.82,3.82,0,0,0,.69-.07l.33-1.16Z"/><path d="M21,7.36l1.62-5.63h1.25l1.41,3.4,1-3.4h1.3L25.92,7.36H24.68L23.28,4l-1,3.36Z"/><path d="M31.41,1.73l.47,5.56-1.32.15-.07-1.3h-2l-.8,1.22H26.36l3.83-5.63ZM30.28,3.37,29.12,5.12h1.3Z"/><path d="M37.24,2.75H35.37L34,7.36h-1.3l1.4-4.61H32.38l.3-1H37.4Z"/><path d="M39.08,1.73,38,5.18a1,1,0,0,0,0,.91.82.82,0,0,0,.72.3,1.2,1.2,0,0,0,.82-.31,1.68,1.68,0,0,0,.59-.9l1.08-3.45h1.31L41.45,5.26a3,3,0,0,1-.67,1.17,3.27,3.27,0,0,1-1.09.77,3,3,0,0,1-1.26.27,2.36,2.36,0,0,1-1.19-.27,1.33,1.33,0,0,1-.61-.77,2,2,0,0,1,.06-1.17l1.08-3.53Z"/><path d="M43.19,1.73h2.09a2.16,2.16,0,0,1,1.49.46A1.22,1.22,0,0,1,47,3.56a2.29,2.29,0,0,1-.51.88,2.89,2.89,0,0,1-.83.6l.57,2.32H44.76l-.43-1.95h-1l-.63,2H41.4Zm1.71,1h-.75l-.51,1.6h.77a1.37,1.37,0,0,0,.75-.21,1,1,0,0,0,.45-.58A.59.59,0,0,0,45.55,3,.87.87,0,0,0,44.9,2.78Z"/><path d="M46.56,7.36l1.82-5.63H52l-.18,1H49.35L48.94,4h1.79l-.17,1h-2l-.43,1.31h2.6l-.18,1Z"/><path d="M59.1,2.12,58.57,3a6.6,6.6,0,0,0-.66-.19,2.12,2.12,0,0,0-.54-.06,1.43,1.43,0,0,0-.78.24,2,2,0,0,0-.65.68,2.53,2.53,0,0,0-.35,1,2.07,2.07,0,0,0,0,1,1.34,1.34,0,0,0,.44.67,1.14,1.14,0,0,0,.73.24A2.83,2.83,0,0,0,58,6.31l.35,1a3,3,0,0,1-.84.29,3.66,3.66,0,0,1-.89.11,2.78,2.78,0,0,1-1.5-.38,2,2,0,0,1-.84-1.06,3.23,3.23,0,0,1-.12-1.54,3.78,3.78,0,0,1,.59-1.56A3.42,3.42,0,0,1,56,2.08a3.3,3.3,0,0,1,1.56-.38,3,3,0,0,1,.81.11A2.35,2.35,0,0,1,59.1,2.12Z"/><path d="M62.22,1.68a2.69,2.69,0,0,1,1.52.4,2.07,2.07,0,0,1,.84,1.07,3.18,3.18,0,0,1,.12,1.52,3.86,3.86,0,0,1-.62,1.57,3.32,3.32,0,0,1-1.2,1.07,3.4,3.4,0,0,1-1.58.4,2.61,2.61,0,0,1-1.49-.4A2.14,2.14,0,0,1,59,6.24a3.06,3.06,0,0,1-.13-1.52,3.67,3.67,0,0,1,.61-1.56,3.45,3.45,0,0,1,1.2-1.08A3.4,3.4,0,0,1,62.22,1.68Zm-2,3a1.9,1.9,0,0,0,.2,1.35,1.16,1.16,0,0,0,1,.53,1.75,1.75,0,0,0,.83-.22,1.92,1.92,0,0,0,.65-.65,2.61,2.61,0,0,0,.37-1.06,2.08,2.08,0,0,0,0-1,1.2,1.2,0,0,0-1.2-.91,1.56,1.56,0,0,0-.82.24,2.18,2.18,0,0,0-.67.68A2.54,2.54,0,0,0,60.22,4.72Z"/><path d="M64.8,7.59l.91-5.78h1.34l-.92,5.78Z"/><path d="M67.13,7.59l.93-5.78h1.28L71.23,5.3l.58-3.49h1.33l-1,5.78H70.9L69,4.14l-.56,3.45Z"/><path d="M73,7.22l.56-1a3.94,3.94,0,0,0,.63.27,2.39,2.39,0,0,0,.7.12,1.34,1.34,0,0,0,.68-.15.57.57,0,0,0,.3-.4.32.32,0,0,0-.13-.29,4.31,4.31,0,0,0-.5-.37L75,5.23c-.35-.24-.62-.43-.81-.58a1.85,1.85,0,0,1-.49-.58,1.14,1.14,0,0,1-.12-.78,1.71,1.71,0,0,1,.4-.82,2.15,2.15,0,0,1,.82-.57,3,3,0,0,1,1.14-.21,3.19,3.19,0,0,1,.86.12,2.4,2.4,0,0,1,.74.33l-.58,1a5.43,5.43,0,0,0-.63-.24,2.45,2.45,0,0,0-.56-.07,1.13,1.13,0,0,0-.54.13.49.49,0,0,0-.26.37.31.31,0,0,0,.11.32,2.12,2.12,0,0,0,.47.34,1.74,1.74,0,0,1,.26.15c.37.24.65.43.84.58a2,2,0,0,1,.47.57,1.12,1.12,0,0,1,.11.79,1.65,1.65,0,0,1-.41.85,2.2,2.2,0,0,1-.87.59,3.47,3.47,0,0,1-1.24.21,3.81,3.81,0,0,1-.92-.14A2.65,2.65,0,0,1,73,7.22Z"/></svg>