<svg id="artwork" xmlns="http://www.w3.org/2000/svg" viewBox="0 0 116.77 25.45"><defs><style>.cls-1,.cls-2,.cls-3{stroke:#000;}.cls-1,.cls-2{stroke-linecap:round;stroke-linejoin:round;}.cls-1{stroke-width:0.5px;}.cls-2{stroke-width:0.75px;}.cls-3{fill:#fff;stroke-miterlimit:10;stroke-width:0.2px;}</style></defs><path class="cls-1" d="M5.43,25.19c-2.37.12-5.13-1-5.18-3.37,0-1.08.82-2.48,2.91-4.15.09-.09.32,0,.51.24s.26.44.14.51C1.8,20,1,21.35,1,22.31c0,1.5,2.63,1.67,3.66,1.62,5.69-.14,13.9-7.15,9-9.91a21.24,21.24,0,0,0-2.95-1.2c-2.23-.77-4.5-1.55-5.39-3.44C3.91,6.31,8,3.63,10.26,2.58,14.29.7,22.07-.94,26.19,1.41A4.66,4.66,0,0,1,28,3.07a2.36,2.36,0,0,1,.4,1.5,1,1,0,0,1-.28.59c-.1.09-.33,0-.52-.21s-.25-.45-.16-.54a.72.72,0,0,0,.19-.4,1.36,1.36,0,0,0-.21-.94,2.92,2.92,0,0,0-1.08-1C22.42-.09,14.8,1.81,11,3.56c-1.8.85-6.23,3.35-5,5.93.56,1.22,2.53,1.9,4.45,2.56a21.17,21.17,0,0,1,3.12,1.29C20.22,17.06,11.94,25.08,5.43,25.19ZM22.09,9.68l-1.31,1.5c-.1.12,0,.35.19.56s.42.28.51.17l1.31-1.5c.07-.12,0-.36-.18-.57S22.18,9.56,22.09,9.68Zm13.12,9.8c.12.21.1.37-.09.37a51.17,51.17,0,0,0-11.27,0c-1.57,2.65-3.33,5.2-4.13,5.2a2.94,2.94,0,0,1-2.48-1.43,1.93,1.93,0,0,1-.19-1.52,2.92,2.92,0,0,1,1.15-1.38,12,12,0,0,1,5-1.67c.52-.87,1.34-2.37,1.78-3.16a4.5,4.5,0,0,1-2.74,1.33c-.75-.16-1-.5-.9-1.08-1.22,1-2.86,2.14-3.46,1.08a2.4,2.4,0,0,1,.24-2.18A9.05,9.05,0,0,1,20,12.59c.12-.1.35,0,.54.21s.25.44.14.54a9.48,9.48,0,0,0-1.88,2.43c-.32.66-.3,1-.07,1.15.67.1,2.13-1.09,3-1.84.82-1.36,2.77-2.54,4-1,.52-.61.87-1.08.87-1.08s.28,0,.47.12a.67.67,0,0,1,.26.56l-.26.45,0,0s-1.2,2.32-2.63,4.83A54.2,54.2,0,0,1,34.67,19,.78.78,0,0,1,35.21,19.48Zm-9.82-5c-1.05-1.38-4.14,2.25-3,2.32A4.69,4.69,0,0,0,25.39,14.46Zm-2.78,5.65a10,10,0,0,0-3.75,1.43,2.61,2.61,0,0,0-1.06,1.24,1.15,1.15,0,0,0,.05.91,1.68,1.68,0,0,0,1.38.59C19.86,24.28,21.25,22.36,22.61,20.11Zm42.08-5.67c.19.19.19.28.12.42-.66,1.15-4.31,3.68-5.93,2.76a2.1,2.1,0,0,1-1-2.63,4.94,4.94,0,0,1-1.3.15c-.61-.05-.79-.21-1.31-.82-.35-.42-2.44,1.43-2.44,1.43s-1.26,2.09-1.38,2.3-.3,0-.49-.14-.31-.45-.24-.57l.36-.57a3.57,3.57,0,0,1-.45.27c-.82.4-1.85.21-2-.8-2.11,1.82-3.87,1.66-3.19-.54-1.65,1.42-4.49,3.54-5.29,2.07-.15-.28,0-.85.25-1.6a9.31,9.31,0,0,1-1.5,1.13c-1.07.56-1.89.23-1.87-.92-.84.8-1.71,1.53-2.23,1.29a1.56,1.56,0,0,1-.47-.35,1.31,1.31,0,0,1-.28-1c-.74.57-1.57,1-2.13.64-1.05-.68-.54-1.71-.09-2.62.09-.19.19-.38.26-.57a34.42,34.42,0,0,0-4.55,3.78c-.07.09-.28,0-.47-.14s-.3-.45-.23-.57L29,13.1c.07-.12.3-.07.49.12s.3.44.23.56l-.58,1.06c1.26-1.06,2.64-2.09,3.16-1.95h.05A.87.87,0,0,1,33,14.13a6,6,0,0,1-.4.92c-.3.61-.65,1.29-.65,1.29.49.32,1.72-.51,2.54-1.13a5.49,5.49,0,0,1,1.32-1.64c1.06-.87,3-.91,3.38.45.09.23,0,.37-.16.32a.86.86,0,0,1-.52-.46c-.47-.45-1.62.09-2,.44a4.57,4.57,0,0,0-1.62,2.62c.82-.23,3-2.71,3-2.71s.3,0,.51.18.26.4.19.52a2.36,2.36,0,0,0-.19,1.38c.08.46,2.1-1.14,2.88-1.77.35-.67.76-1.41,1.22-2.16a1.65,1.65,0,0,1,.14-.26c0-1.78-6-1.55-6-1.55a.79.79,0,0,1-.54-.42c-.14-.21-.12-.4,0-.4H44c2-3.07,3.94-5.81,4-5.84s.31,0,.49.17.28.44.21.54S47,7,45.12,9.75h6a.79.79,0,0,1,.54.4c.14.23.12.42,0,.42h-7c-.5.75-1,1.52-1.46,2.27v0c0,.09,0,.14-.09.14-.37.6-.69,1.13-1,1.6a.23.23,0,0,1-.06.16l-.06,0c-.7,1.23-1,2-.86,2.32.38.72,4.23-2.25,5-2.89a12.43,12.43,0,0,1,1.39-1.84c.1-.1.33,0,.52.19s.26.44.19.56c-1.78,2-1.92,3.44-1.76,3.58s2.09-.91,3.35-3l.07-.1c.09-.09.33,0,.52.19s.28.45.18.54a.62.62,0,0,1-.16.16c-.3.38-2.06,2.86-.3,2A8.16,8.16,0,0,0,52.17,15l1.91-3.07c.07-.12.3,0,.49.14s.3.45.23.56L53.93,14c.83-.4,2-.78,2.42-.19.21.23.14.77.44.8a5.59,5.59,0,0,0,1.31-.15,4.69,4.69,0,0,1,.61-.89,10.9,10.9,0,0,1,1.53-1.38,3.09,3.09,0,0,1,1.57-.7,1.14,1.14,0,0,1,.84,1.19,1.86,1.86,0,0,1-.23.66,3.14,3.14,0,0,1-1.29,1.29,7.49,7.49,0,0,1-2.42.7c-1.59,3.42,4.74.52,5.46-.8A.33.33,0,0,1,64.69,14.44ZM42.78,11.7l.7-1.13-2.92-.12A6.17,6.17,0,0,1,42.78,11.7Zm16.69,2.57a9.33,9.33,0,0,0,1.05-.39,3.2,3.2,0,0,0,1.17-1.2c.05-.09.07-.16.12-.26a6.48,6.48,0,0,0-.92.56A10,10,0,0,0,59.47,14.27Zm35.29,8.58c-4.15-1.52-2.79-9-.14-16.19l.18-.52A4.07,4.07,0,0,0,95,4.86c-.23-.33-1,.6-1,.6-.82,1.2-1.65,2.34-2.48,3.42-1.29,1.72-2.48,3.21-3.45,4.3a9.72,9.72,0,0,1-1.65,1.61c0-.45.2-1.73.41-3.11.3-2.07.63-4.32,0-5.3-.47-.73-1.14-.94-2.13-.31-1.4.89-3.79,3.5-6.12,6.3.27-.63.53-1.28.73-1.91a24.45,24.45,0,0,0,1.24-4.55c.22-1.44,0-2.56-.67-3.12a1.37,1.37,0,0,0-.69-.29,4.38,4.38,0,0,0-2.46.59A9,9,0,0,0,73.92,5.6a6.84,6.84,0,0,0-1.48,3.09,2.73,2.73,0,0,0,.26,1.48.91.91,0,0,0,.55.43c.16,0,.2-.14.08-.38a1.53,1.53,0,0,1-.11-1,6.34,6.34,0,0,1,1.41-3,9.7,9.7,0,0,1,2.81-2.44,3.77,3.77,0,0,1,2.25-.53c.07,0,.12,0,.14,0,.18.17.18.89,0,2a25.54,25.54,0,0,1-1.22,4.51,51.1,51.1,0,0,1-2.27,5.43c-.94,1.21-1.81,2.39-2.48,3.37s-1.08,1.6-1.36,2.09c-.66,1.12-.59,1.68.4,1.5a1.08,1.08,0,0,0,.41-.26c1-.82,2.4-3.19,3.76-6C80,12.25,83.55,8,85.43,6.85c.59-.39.84-.49.89-.41.4.61.09,2.72-.21,4.67s-.56,3.8.26,4.43a.69.69,0,0,0,.4.14c.35,0,1.08-.69,2.06-1.78S91,11.32,92.3,9.59c.2-.29.42-.59.65-.87-2.09,6.72-2.52,13.22,2.07,14.9.2.08.3,0,.23-.26A.94.94,0,0,0,94.76,22.85Zm3.51-10.94,1.31-1.5c.07-.12,0-.36-.19-.57s-.42-.28-.51-.16l-1.31,1.5c-.1.12,0,.35.18.56S98.18,12,98.27,11.91Zm18.11-1.34h-7c-.49.75-1,1.52-1.46,2.27v0c0,.09,0,.14-.09.14-1.43,2.32-2.2,3.65-1.94,4.12.42.8,5.17-3,5.17-3s.24-.12.43.09a.24.24,0,0,1,0,.4s-5.34,5.27-6.49,3.17a2.39,2.39,0,0,1,.26-1.61c-.8.66-1.75,1.23-2.37.83-1-.68-.54-1.71-.09-2.62.09-.19.18-.38.25-.57a34.86,34.86,0,0,0-4.54,3.78c-.07.09-.28,0-.47-.14s-.31-.45-.24-.57l.4-.7c-1.22,1-2.88,2.16-3.49,1.1a2.42,2.42,0,0,1,.23-2.18,9.26,9.26,0,0,1,1.93-2.5c.11-.1.35,0,.54.21s.25.44.14.54a9.48,9.48,0,0,0-1.88,2.43c-.33.66-.3,1-.07,1.15.86.13,3-1.88,3.48-2.32l.83-1.5c.07-.12.31-.07.5.12s.3.44.23.56L100,14.84c1.27-1.06,2.65-2.09,3.17-1.95h0a.87.87,0,0,1,.66,1.24,6,6,0,0,1-.4.92c-.3.61-.65,1.29-.65,1.29.58.38,2.24-.89,3-1.46.38-.77.86-1.62,1.39-2.5a1.65,1.65,0,0,1,.14-.26c0-1.78-6-1.55-6-1.55a.79.79,0,0,1-.54-.42c-.14-.21-.11-.4.05-.4h7.92c2-3.07,3.94-5.81,4-5.84s.31,0,.49.17.28.44.21.54S111.74,7,109.92,9.75h6a.79.79,0,0,1,.54.4C116.57,10.38,116.55,10.57,116.38,10.57Zm-8.1,0-2.93-.12a6.17,6.17,0,0,1,2.22,1.25Z"/><path class="cls-2" d="M5.43,25.19c-2.37.12-5.13-1-5.18-3.37,0-1.08.82-2.48,2.91-4.15.09-.09.32,0,.51.24s.26.44.14.51C1.8,20,1,21.35,1,22.31c0,1.5,2.63,1.67,3.66,1.62,5.69-.14,13.9-7.15,9-9.91a21.24,21.24,0,0,0-2.95-1.2c-2.23-.77-4.5-1.55-5.39-3.44C3.91,6.31,8,3.63,10.26,2.58,14.29.7,22.07-.94,26.19,1.41A4.66,4.66,0,0,1,28,3.07a2.36,2.36,0,0,1,.4,1.5,1,1,0,0,1-.28.59c-.1.09-.33,0-.52-.21s-.25-.45-.16-.54a.72.72,0,0,0,.19-.4,1.36,1.36,0,0,0-.21-.94,2.92,2.92,0,0,0-1.08-1C22.42-.09,14.8,1.81,11,3.56c-1.8.85-6.23,3.35-5,5.93.56,1.22,2.53,1.9,4.45,2.56a21.17,21.17,0,0,1,3.12,1.29C20.22,17.06,11.94,25.08,5.43,25.19Z"/><path class="cls-2" d="M22.09,9.68l-1.31,1.5c-.1.12,0,.35.19.56s.42.28.51.17l1.31-1.5c.07-.12,0-.36-.18-.57S22.18,9.56,22.09,9.68Z"/><path class="cls-2" d="M94.76,22.85c-4.15-1.52-2.79-9-.14-16.19l.18-.52A4.07,4.07,0,0,0,95,4.86c-.23-.33-1,.6-1,.6-.82,1.2-1.65,2.34-2.48,3.42-1.29,1.72-2.48,3.21-3.45,4.3a9.72,9.72,0,0,1-1.65,1.61c0-.45.2-1.73.41-3.11.3-2.07.63-4.32,0-5.3-.47-.73-1.14-.94-2.13-.31-1.4.89-3.79,3.5-6.12,6.3.27-.63.53-1.28.73-1.91a24.45,24.45,0,0,0,1.24-4.55c.22-1.44,0-2.56-.67-3.12a1.37,1.37,0,0,0-.69-.29,4.38,4.38,0,0,0-2.46.59A9,9,0,0,0,73.92,5.6a6.84,6.84,0,0,0-1.48,3.09,2.73,2.73,0,0,0,.26,1.48.91.91,0,0,0,.55.43c.16,0,.2-.14.08-.38a1.53,1.53,0,0,1-.11-1,6.34,6.34,0,0,1,1.41-3,9.7,9.7,0,0,1,2.81-2.44,3.77,3.77,0,0,1,2.25-.53c.07,0,.12,0,.14,0,.18.17.18.89,0,2a25.54,25.54,0,0,1-1.22,4.51,51.1,51.1,0,0,1-2.27,5.43c-.94,1.21-1.81,2.39-2.48,3.37s-1.08,1.6-1.36,2.09c-.66,1.12-.59,1.68.4,1.5a1.08,1.08,0,0,0,.41-.26c1-.82,2.4-3.19,3.76-6C80,12.25,83.55,8,85.43,6.85c.59-.39.84-.49.89-.41.4.61.09,2.72-.21,4.67s-.56,3.8.26,4.43a.69.69,0,0,0,.4.14c.35,0,1.08-.69,2.06-1.78S91,11.32,92.3,9.59c.2-.29.42-.59.65-.87-2.09,6.72-2.52,13.22,2.07,14.9.2.08.3,0,.23-.26A.94.94,0,0,0,94.76,22.85Z"/><path class="cls-3" d="M59.47,14.27a9.33,9.33,0,0,0,1.05-.39,3.2,3.2,0,0,0,1.17-1.2c.05-.09.07-.16.12-.26a6.48,6.48,0,0,0-.92.56A10,10,0,0,0,59.47,14.27Z"/></svg>