<svg version="1" xmlns="http://www.w3.org/2000/svg" width="933.333" height="933.333" viewBox="0 0 700.000000 700.000000"><path d="M312 1.1c-5.7.8-22.7 3.4-28.5 4.4-1.1.2-4.2.9-7 1.5-2.7.6-5.9 1.3-6.9 1.6-25.1 5.1-63.7 19.9-89.8 34.5-51.4 28.7-96.6 71.5-127 120.4-23.4 37.6-38.1 74.9-47.2 119.7-1.6 8-2.3 12-3.2 19.8-.2 2.5-.7 5.6-1.1 7-1 4-1.3 68.9-.3 75.5.5 3.3 1.2 8.5 1.5 11.5.6 4.9 3.6 22 4.9 27.5.2 1.1.9 4.2 1.6 7 10.8 47.9 36.1 98.6 69.9 140.4 8.7 10.8 31.5 34.2 41.1 42.2 3.6 3 6.7 5.7 7 6 .3.3 4.8 3.8 10 7.8 5.2 3.9 10 7.5 10.5 7.9 12.2 9.8 47.7 29.1 70.5 38.5 27.6 11.3 59.1 19.4 90 23.2 22.3 2.8 64.8 2.7 85-.1 1.9-.3 5.1-.7 7-1 46.3-6.3 94.5-23.9 135-49.2 69.6-43.6 120.8-108.4 146.9-186 4-11.7 10.8-37.4 11.7-43.7.2-1.7.6-4.1.9-5.5.2-1.3.7-4.2 1-6.5.3-2.2.8-4.7 1-5.5.2-.8.7-4.7 1.1-8.5.3-3.9.8-8.4 1.1-10 .8-5.9 1-51.1.2-59.7-.8-8.4-1.7-17.1-2.4-21.3-.1-1.1-.6-4.3-1-7-.3-2.8-.8-5.8-1.1-6.7-.5-1.8-1.1-4.6-2-9.3-2.2-12.3-10.1-39.1-16.1-54.5-8.4-21.7-20.2-44.6-33.1-64.5-4.8-7.4-17.1-24.6-18.1-25.5-.4-.3-2.2-2.5-4.1-5-10.7-13.6-41.3-44.1-51.2-50.8-1.3-.9-2.5-1.9-2.8-2.2-2.6-3.2-27.1-19.9-42.4-28.9C493.8 28 449.7 11.5 416 5.6c-1.9-.3-4.6-.9-6-1.2-1.4-.2-8.8-1.3-16.5-2.3C382.6.7 372.8.3 349 .3c-16.8 0-33.4.4-37 .8zm59.5 17.3c26.5 1.4 55.7 7.1 83 16.1 64.3 21.2 120.7 61.7 161.7 116 30 39.8 51.5 88 60.7 136.5 2.7 13.9 3.1 17.1 5 36 .9 8.6.7 53.4-.2 58-.3 1.4-.8 5.2-1.1 8.5-.9 7.9-1.5 12-2.7 18-.5 2.7-1.2 6.6-1.5 8.5-.3 1.9-1.2 6.2-2.1 9.5-.8 3.3-1.6 6.7-1.8 7.5-1.5 7.4-10.2 34.1-14 42.7-1.5 3.2-3 6.7-3.4 7.8-2.7 7-16.2 32.7-21.9 41.8-6 9.7-18.5 27.4-23.7 33.6-36.4 44.2-79 76.2-130 97.9-23.5 9.9-51.8 18.1-75.5 21.8-1.9.3-4.6.7-6 1-2.6.4-7.7 1-21 2.4-7.7.8-51.7.5-58-.4-1.9-.2-5.9-.7-8.9-1.1-3-.3-6.4-.8-7.5-1-1.2-.2-3.8-.7-5.9-1-19.9-2.8-50.5-11.4-72.3-20.4-31.8-13-64.6-33.1-90.4-55.1-7.2-6.2-28.8-27.4-34-33.6-33.5-38.9-57.5-83.7-70.5-131.7-1.4-5.3-2.8-10.5-3-11.5-.2-.9-1.2-6.2-2.4-11.7-2.4-11.6-3.8-21.2-4.6-31-.3-3.9-.8-9-1.1-11.4-.7-6.2-.7-34.1.1-43.6 1.3-16.2 1.5-18 1.9-20.5.3-1.4.8-4.3 1.1-6.5 1.5-10.3 4.1-23.8 6.2-31.5.8-3 1.6-6.6 1.9-7.9.3-1.2 2.5-8.4 5-16 11.6-34.5 27.5-65.2 48.8-94.1 13-17.6 35.8-42 51.1-54.6 3.3-2.7 6.2-5.2 6.5-5.5 1.5-1.6 15-11.6 24.1-17.7 23.2-15.5 47.6-27.8 72.9-36.9 10.9-3.8 27.9-8.9 32.9-9.8 1.9-.3 3.7-.8 4.1-1 1.1-.7 23.7-4.8 32.5-5.9 2.8-.4 6.6-.9 8.5-1.1 1.9-.3 9.8-.8 17.5-1.1 7.7-.4 14.1-.7 14.2-.8.3-.2 11.5.2 23.8.8z"/><path d="M325.5 69.1c-12.2 1.3-16.9 1.9-19.2 2.3-1.1.3-4.3.8-7 1.1-7.8 1.1-31.9 7.3-43.3 11.2-15.5 5.2-40.4 16.7-51.5 23.6-33.8 21.1-54.5 39-76.6 65.9-18.6 22.8-32.6 47-44.2 76.3-4 10.4-4.8 14.1-5.2 24.8-.9 28.3 15.7 51.8 52.6 74.3 19.7 12 45.9 24.1 93.4 42.8 14.9 5.9 28.4 11.3 30 12.1 1.7.7 5.5 2.3 8.5 3.5 51.6 20.1 92.3 45.5 109.5 68.4 13.7 18.4 17.1 42 8.1 56.9-3.5 5.7-5.3 7.7-10.8 11.9-14.5 11-35.3 9.4-49.1-3.8-4.8-4.5-10.2-14.5-11.2-20.4-.4-1.9-.7-16.3-.7-32-.1-31.3-.4-33.2-6.1-40.6-8.7-11.3-30.5-21.9-70.2-34.3-54.2-16.7-78.1-21.6-106.5-21.6-15.1 0-20.1.6-28.5 3.5-14.4 5-21.4 13.5-22 27-.5 9.1 2.2 19.6 9.9 38.7 10.9 27 26.6 53.4 45.5 76.3 4.7 5.8 25.8 27.1 32.6 33 11.1 9.7 30.2 23.2 44 31.1 7.3 4.2 28.9 14.9 30.1 14.9.3 0 2.4.8 4.7 1.9 8.7 3.8 34 12 42 13.5 1.2.2 6 1.1 10.7 2 4.7 1 10.3 1.9 12.5 2.2 2.2.3 5.1.7 6.5 1 13.6 2.2 60.6 2.2 69-.1.8-.2 3.8-.6 6.5-1 30.3-3.7 69.8-17.4 100-34.8 28.3-16.2 60.6-43.6 77.5-65.7 1.9-2.5 3.8-4.7 4.1-5 1.7-1.4 14.3-19.7 19.6-28.5 6.5-10.8 19.6-36.3 23.6-46 4-9.6 5.5-18.4 5.2-29.4-.1-5.5-.6-10.4-.9-11-.4-.6-.9-2.1-1.1-3.3-.8-3.8-8.1-18.1-11.4-22.3-20.6-25.9-52.6-44.8-131.6-78-51.4-21.6-67.7-29-91-41.4-38.3-20.3-59.8-39-69.5-60.4-3.1-7-5.3-16.4-5.1-21.9.3-9.8 9-22.7 18.8-28 18-9.8 38.2-5.5 50.5 10.7 7 9.2 7.8 13.8 7.8 45.6 0 19.6.4 28.6 1.2 30.6 4.2 9.6 16.1 18.1 36.8 26.4 26.7 10.6 86.5 27.6 111.5 31.8 29.5 4.9 48.9 4.7 63.9-1 16-5.9 22.5-18.6 19-37-2.6-13.5-16.2-44-28.7-64-16-25.8-42.2-55.3-64.7-72.9-5.8-4.5-11.3-8.8-12.3-9.6-.9-.8-1.9-1.4-2.2-1.4-.2 0-2.4-1.3-4.7-2.9-24.4-16.6-55-30.4-84.8-38.4-6-1.6-18.5-4.3-24-5.2-1.9-.3-4.2-.8-5-1-.8-.2-4.4-.6-8-1-3.6-.3-7.8-.9-9.5-1.2-4.4-.9-40.9-1-49-.2z"/></svg>